PathFileType	4	(X/Y/Z)	C:/Users/beibeiliu/ov580/test_trc/capture2\sequence.21_training_dense_left.trc
DataRate	CameraRate	NumFrames	NumMarkers	Units	OrigDataRate	OrigDataStartFrame	OrigNumFrames
120	120	10	19	mm	120	134	355
Frame#	Time	ThumbCMC			ThumbMCP			ThumbIP			ThumbTip			IndexMCP			IndexPIP			IndexTip			MiddleMCP			MiddlePIP			MiddleTip			RingMCP			RingPIP			RingTip			PinkyMCP			PinkyPIP			PinkyTip			BackHand1			BackHand2			BackHand3	
		X0	Y0	Z0	X1	Y1	Z1	X2	Y2	Z2	X3	Y3	Z3	X4	Y4	Z4	X5	Y5	Z5	X6	Y6	Z6	X7	Y7	Z7	X8	Y8	Z8	X9	Y9	Z9	X10	Y10	Z10	X11	Y11	Z11	X12	Y12	Z12	X13	Y13	Z13	X14	Y14	Z14	X15	Y15	Z15	X16	Y16	Z16	X17	Y17	Z17	X18	Y18	Z18	
133	1.10833	-117.717	44.977	4.88778	-101.245	55.5639	-19.7291	-98.1293	58.4363	-46.8489	-96.7459	62.9007	-72.3591	-145.757	17.6446	-52.2859	-142.511	19.3008	-79.1397	-139.627	21.4263	-106.153	-116.924	8.4996	-59.4286	-94.253	30.1785	-60.8544	-89.4043	30.0923	-24.2157	-97.6474	-3.1117	-51.7234	-80.2742	22.3705	-43.8384	-91.5961	22.1086	-10.2061	-85.5385	-11.3063	-42.9212	-70.0405	11.899	-31.7152	-85.7541	13.0904	-4.69835	-118.709	-20.7162	-0.377662	-112.385	-14.4056	30.0311	-134.381	5.9226	13.5839	
134	1.11667	-114.357	44.94	6.96475	-100.636	50.9725	-25.2004	-98.4895	55.888	-50.4438	-96.371	58.9983	-72.4215	-149.378	20.0448	-51.745	-150.512	27.3227	-80.9441	-145.65	22.5493	-103.426	-123.639	11.9354	-59.9121	-97.1388	27.0172	-64.5257	-95.3249	32.9406	-25.4493	-103.203	-1.79335	-53.5597	-83.1101	21.8939	-45.0137	-91.8955	19.4857	-10.2867	-90.2034	-9.95155	-47.1319	-77.21	13.3978	-33.3856	-90.413	13.7918	-5.23185	-121.987	-18.8562	-5.8506	-118.116	-12.8958	25.4539	-138.447	10.0116	11.826	
135	1.125	-112.415	46.5877	8.66172	-97.8573	53.2948	-22.6816	-96.8318	55.6976	-52.2981	-95.4326	60.8516	-74.0188	-151.811	24.5566	-54.8084	-151.447	26.4329	-80.6178	-150.04	24.9632	-105.222	-126.343	13.1722	-59.4179	-101.044	28.7654	-64.8576	-94.9805	28.3377	-24.1714	-108.409	4.22766	-54.7927	-82.8022	20.172	-44.429	-93.569	21.913	-12.7534	-98.3342	-11.6293	-43.7449	-77.8525	11.0853	-33.6854	-88.7292	13.0651	-4.00502	-126.867	-15.6257	-3.50711	-116.054	-15.0272	24.0388	-137.502	13.3931	12.9156	
136	1.13333	-110.379	43.3941	3.59247	-96.094	51.3552	-27.06	-93.2994	57.2908	-50.1901	-93.8554	59.5777	-75.4825	-152.814	29.4543	-54.0061	-153.521	29.9512	-78.4528	-152.59	28.5794	-102.566	-127.992	15.9408	-60.5181	-99.8997	30.1619	-64.1495	-96.4971	33.0169	-26.5422	-110.548	1.41604	-54.2368	-86.3982	17.7791	-50.0621	-92.3473	19.65	-13.1561	-98.314	-8.61268	-48.0444	-77.4814	7.12815	-35.6147	-91.2042	12.6617	-3.14624	-128.501	-12.0677	-2.06151	-118.249	-13.3647	25.1233	-136.467	14.2946	12.3921	
137	1.14167	-108.053	44.5816	3.86653	-91.8687	51.9854	-24.6836	-91.6544	53.3638	-53.4982	-91.2015	56.2338	-76.7414	-151.725	34.4435	-49.3132	-153.745	40.6273	-78.2333	-152.859	39.9236	-103.656	-129.578	18.5088	-57.3058	-98.6294	30.9302	-64.8003	-92.6751	29.1689	-27.8467	-112.725	0.641566	-54.8602	-84.7589	14.7624	-50.0392	-93.1951	20.845	-14.6685	-102.411	-8.42236	-47.7725	-79.858	6.8403	-35.8679	-87.4404	12.6805	-7.6198	-131.774	-10.3539	-3.03748	-118.541	-9.80625	25.2857	-137.535	20.558	12.6028	
138	1.15	-102.187	46.3654	6.41874	-88.2164	49.8108	-24.4785	-87.6614	56.5755	-56.0248	-86.5186	58.7227	-76.2313	-150.461	40.6799	-51.1183	-151.416	42.8286	-79.1784	-150.271	45.2487	-105.541	-127.964	20.5832	-61.4191	-97.3946	30.1838	-64.0789	-91.2126	30.2028	-28.7449	-116.19	4.63172	-54.6982	-86.8671	17.2101	-50.2231	-89.6164	16.8182	-16.4512	-106.085	-4.67029	-48.1843	-80.9848	5.85287	-36.4934	-88.1951	11.7858	-8.72478	-135.997	-8.8824	-6.34086	-120.3	-6.16841	27.2562	-136.327	25.5899	11.4076	
139	1.15833	-99.3216	50.0621	3.71131	-85.8945	51.4151	-27.5489	-85.7723	53.909	-54.6402	-85.8076	55.8201	-74.0366	-148.026	49.3353	-50.9278	-148.677	52.3938	-78.8437	-147.961	48.66	-101.344	-127.395	23.1108	-62.6817	-99.1494	29.0705	-67.0467	-89.9307	30.8976	-30.5132	-115.615	7.72165	-55.9187	-85.7843	15.1825	-47.6961	-93.0447	19.7203	-15.526	-112.555	-7.95384	-46.8738	-84.344	2.31174	-39.6187	-92.8013	7.70377	-7.23171	-135.938	-2.178	-2.20897	-126.017	-4.6313	22.8518	-132.834	26.742	14.2092	
140	1.16667	-98.1165	49.1662	3.70045	-82.7715	51.6077	-25.8152	-82.5588	55.7281	-54.1529	-83.2627	58.5458	-78.6049	-146.119	50.7043	-51.3879	-147.824	54.3532	-79.2611	-148.17	52.1664	-102.182	-129.662	29.8382	-58.2991	-98.7064	28.9162	-66.311	-92.0839	30.4902	-28.1431	-119.789	12.3596	-56.3493	-87.9897	17.8838	-48.405	-94.1871	21.0868	-16.8554	-114.73	-4.47743	-48.9078	-87.6998	2.79149	-40.4245	-93.658	10.8034	-12.3143	-138.719	2.45211	-3.78962	-124.795	-0.409925	26.7408	-134.93	34.8409	12.8809	
141	1.175	-95.2234	50.9027	4.13575	-83.6233	49.4827	-26.9795	-79.8778	58.5676	-53.3861	-82.5081	57.6036	-74.3338	-144.33	58.2705	-48.3215	-146.591	60.2903	-73.9363	-148.349	61.3471	-103.041	-132.275	31.7488	-58.7526	-97.6373	33.6427	-64.2719	-91.8123	31.6481	-29.9642	-121.295	12.1844	-58.8749	-92.4264	13.8221	-51.4114	-93.9259	16.5186	-19.3677	-117.966	-2.46572	-52.7401	-91.8328	1.86662	-43.6308	-96.9716	11.6125	-8.75523	-143.479	7.23518	-7.47503	-131.465	1.67525	22.5367	-132.298	34.6426	12.6645	
142	1.18333	-93.8746	50.4398	5.65302	-84.0971	48.7426	-27.2087	-81.4488	55.2733	-54.5097	-84.3635	55.6749	-76.996	-146.532	60.5858	-47.5672	-149.16	60.862	-75.1452	-150.813	60.5197	-99.1188	-132.763	36.8738	-60.0624	-103.11	29.8539	-66.4266	-97.68	27.7099	-27.9472	-128.295	16.9701	-56.5272	-97.1953	12.9644	-52.6366	-99.5617	21.9845	-17.6862	-124.2	-2.06066	-53.0111	-97.944	4.14207	-44.1304	-98.6002	7.9734	-10.4047	-147.395	11.2133	-5.06153	-136.699	2.22011	22.4041	-134.696	35.831	14.1979	
